Coordinates
version=1
nRows=13
nColumns=36
inDegrees=yes

Units are S.I. units (second, meters, Newtons, ...)
If the header above contains a line with 'inDegrees', this indicates whether rotational values are in degrees (yes) or radians (no).

endheader
time	pelvis_tilt	pelvis_list	pelvis_rotation	pelvis_tx	pelvis_ty	pelvis_tz	hip_flexion_r	hip_adduction_r	hip_rotation_r	knee_angle_r	knee_angle_r_beta	ankle_angle_r	subtalar_angle_r	mtp_angle_r	hip_flexion_l	hip_adduction_l	hip_rotation_l	knee_angle_l	knee_angle_l_beta	ankle_angle_l	subtalar_angle_l	mtp_angle_l	lumbar_extension	lumbar_bending	lumbar_rotation	arm_flex_r	arm_add_r	arm_rot_r	elbow_flex_r	pro_sup_r	arm_flex_l	arm_add_l	arm_rot_l	elbow_flex_l	pro_sup_l
      5.96666670	     -3.08273625	     -2.67774546	     -0.60537913	      0.16941455	      0.96140136	      0.07975913	      9.41695569	     -1.13303141	     -0.42085185	     11.05786983	      0.19299624	     10.25820956	     -7.13597953	     -7.49999987	      3.65059423	      2.16970453	    -11.82470608	      0.79203029	      0.01382354	     11.30776401	      3.63704201	     -7.49999987	     10.31427985	      0.14878766	      7.49148983	     47.41045097	     11.19459856	     71.06725819	    121.32949362	    100.18815886	     31.33762015	      3.80510285	     54.08017503	    116.14804804	     85.06951788
      5.98333330	     -3.13793549	     -2.68969627	     -0.62533261	      0.16906709	      0.96247831	      0.08021823	      9.46522427	     -1.08547995	     -0.33338615	     11.05483026	      0.19294319	     10.21265031	     -7.15219319	     -7.49999987	      3.69796408	      2.13770514	    -11.86269778	      0.80210367	      0.01399935	     11.38208171	      3.68472614	     -7.49999987	     10.39486982	      0.12955996	      7.59233277	     47.31508567	     11.25862733	     70.99437233	    121.30499044	    100.19396114	     31.40846065	      3.84290732	     54.00495848	    116.22211435	     84.98603307
      6.00000000	     -3.16536611	     -2.69163446	     -0.62351572	      0.16951391	      0.96202989	      0.08044663	      9.46857332	     -1.06365186	     -0.32769760	     10.98097575	      0.19165418	     10.21007227	     -7.11258217	     -7.49999987	      3.72616465	      2.12934755	    -11.75574308	      0.79049732	      0.01379678	     11.36292900	      3.42808833	     -7.49999987	     10.39989976	      0.05924692	      7.61648793	     47.26817351	     11.29939283	     70.90746095	    121.34281651	    100.24374859	     31.46423114	      3.80159813	     54.06297175	    116.04036840	     84.93897116
      6.01666670	     -3.22388444	     -2.70119801	     -0.63432891	      0.17024985	      0.96323754	      0.08027070	      9.47338182	     -1.03455425	     -0.23789204	     10.87059899	      0.18972774	     10.08867165	     -7.16773288	     -7.49999987	      3.76625322	      2.10477993	    -11.83412852	      0.77955808	      0.01360586	     11.42994150	      3.47212732	     -7.49999987	     10.50482198	     -0.00292420	      7.69562822	     47.05736760	     11.20348758	     70.86366703	    121.39522829	    100.23900873	     31.42464369	      3.74436602	     54.21495978	    115.71008054	     84.71076569
      6.03333330	     -3.29985680	     -2.69172816	     -0.63242918	      0.17064592	      0.96413208	      0.08040684	      9.49830174	     -1.04392968	     -0.21312521	     10.77684948	      0.18809151	     10.00294438	     -7.06178757	     -7.49999987	      3.82655280	      2.11847705	    -11.85745006	      0.75476076	      0.01317306	     11.34540920	      3.32813392	     -7.49999987	     10.50937110	     -0.04333733	      7.72729700	     46.81413152	     11.09004579	     70.81089702	    121.52487372	    100.33180624	     31.28156082	      3.66935801	     54.34918867	    115.64330288	     84.72043848
      6.05000000	     -3.32357916	     -2.70114705	     -0.59240195	      0.17126511	      0.96376927	      0.08065757	      9.44507267	     -1.04324410	     -0.41635480	     10.67943612	      0.18639132	     10.03916034	     -6.66295204	     -7.49999987	      3.81964358	      2.11234193	    -12.05920166	      0.72697936	      0.01268818	     11.38363631	      3.56921662	     -7.49999987	     10.47246058	     -0.03772419	      7.62070949	     46.68747262	     11.07019077	     70.86839389	    121.53654417	     99.63749175	     31.09781227	      3.51188874	     54.39669224	    115.90042055	     84.54359461
      6.06666670	     -3.41906357	     -2.71022705	     -0.58203659	      0.17134691	      0.96399513	      0.08080087	      9.47198969	     -1.00917702	     -0.22496888	     10.57330489	      0.18453898	      9.79906638	     -6.88291076	     -7.49999987	      3.88694281	      2.09757367	    -11.97250100	      0.70263142	      0.01226323	     11.19103335	      3.33175358	     -7.49999987	     10.53123512	     -0.05073878	      7.72537650	     46.57496589	     10.97085093	     70.75664882	    121.66474533	    100.13185086	     31.00887641	      3.48874390	     54.53427807	    116.01214115	     85.01962251
      6.08333330	     -3.43637710	     -2.72411486	     -0.56377873	      0.17149735	      0.96322720	      0.08076309	      9.43464530	     -0.98940316	     -0.23521392	     10.51708139	      0.18355770	      9.77218296	     -6.79235682	     -7.49999987	      3.86577842	      2.08137935	    -11.98910089	      0.68938525	      0.01203204	     11.06949458	      3.31472266	     -7.49999987	     10.50892053	     -0.02089232	      7.67462348	     46.60790892	     10.99986783	     70.72507277	    121.75170361	    100.11469655	     30.97220183	      3.44610198	     54.47849751	    116.24094823	     85.22713567
      6.10000000	     -3.43533380	     -2.74161505	     -0.52345056	      0.17165018	      0.96196152	      0.08112013	      9.38371484	     -0.95632618	     -0.30042177	     10.48036985	      0.18291696	      9.83030016	     -6.77451932	     -7.49999987	      3.82106989	      2.04876739	    -11.89023822	      0.67891634	      0.01184933	     10.98712012	      3.18631475	     -7.49999987	     10.54307796	      0.00686212	      7.68035121	     46.59138520	     11.06165204	     70.56465123	    121.86044459	     99.95341759	     31.09965716	      3.53622049	     54.37338252	    116.30775151	     85.22687447
      6.11666670	     -3.45095080	     -2.74211736	     -0.55670298	      0.17268822	      0.96330379	      0.08106801	      9.35265390	     -0.93995812	     -0.23485170	     10.43478999	      0.18212144	      9.79403771	     -6.78928253	     -7.49999987	      3.82016540	      2.03890452	    -12.11018095	      0.66387711	      0.01158684	     10.97130970	      3.38067833	     -7.49999987	     10.56674146	      0.05025495	      7.74842904	     46.56662964	     11.05698688	     70.50853463	    121.93195545	     99.94162891	     31.08204579	      3.59693148	     54.47976739	    116.35906678	     85.12956212
      6.13333330	     -3.49820925	     -2.72386785	     -0.57988581	      0.17286349	      0.96398175	      0.08122271	      9.34717190	     -0.93351207	     -0.06245113	     10.36137274	      0.18084007	      9.65515020	     -6.98595669	     -7.49999987	      3.84319313	      2.04350326	    -12.18824149	      0.65564679	      0.01144320	     10.93564933	      3.45059035	     -7.49999987	     10.60750153	      0.04606405	      7.74922781	     46.59171338	     11.16262886	     70.64884900	    122.00655901	     99.68696264	     30.96145271	      3.62861842	     54.66166224	    116.48932023	     85.20073567
      6.15000000	     -3.51307681	     -2.68078534	     -0.57894628	      0.17320644	      0.96463562	      0.08126002	      9.29193405	     -0.97993740	     -0.16037221	     10.26972362	      0.17924049	      9.67658211	     -6.80866420	     -7.49999987	      3.82875292	      2.09211252	    -12.13787042	      0.64713332	      0.01129461	     10.81415535	      3.34204091	     -7.49999987	     10.61451465	      0.00216033	      7.65614244	     46.53486500	     11.25772215	     70.95769706	    122.02528633	     99.96248117	     30.90948840	      3.64320653	     54.90426073	    116.62654556	     85.27906811
      6.16666670	     -3.52213612	     -2.66881336	     -0.56266429	      0.17317401	      0.96259467	      0.08112626	      9.25225637	     -0.99836154	     -0.17427333	     10.20579886	      0.17812479	      9.73098281	     -6.76728658	     -7.49999987	      3.81426769	      2.11486125	    -12.14652728	      0.64272675	      0.01121770	     10.79908323	      3.35408902	     -7.49999987	     10.59895534	      0.05806984	      7.59045421	     46.66815862	     11.34250427	     71.03806302	    122.06649052	     99.87127131	     31.04587042	      3.75423830	     54.98973972	    116.69248185	     85.34539261
